<?xml version="1.0" encoding="UTF-8" standalone="no"?>
<svg width="235px" height="52px" viewBox="0 0 235 52" version="1.1" xmlns="http://www.w3.org/2000/svg" xmlns:xlink="http://www.w3.org/1999/xlink">
    <!-- Generator: Sketch 45.2 (43514) - http://www.bohemiancoding.com/sketch -->
    <title>Group 4</title>
    <desc>Created with Sketch.</desc>
    <defs></defs>
    <g id="Page-1" stroke="none" stroke-width="1" fill="none" fill-rule="evenodd">
        <g id="Tablero-TM" transform="translate(-81.000000, -45.000000)">
            <g id="Group-4" transform="translate(81.000000, 45.000000)">
                <g id="Page-1" fill="#D6E300">
                    <path d="M21.2544776,21.8919513 L21.2544776,43.6903562 L8.26538097,34.2111722 L8.26538097,23.2564911 L14.6861544,27.5354329 C15.1718881,27.8612227 15.8228774,27.7827262 16.2171303,27.3507006 C16.2171303,27.3507006 21.2544776,21.8919513 21.2544776,21.8919513 L21.2544776,21.8919513 Z M42.5098994,12.0438931 L47.0674151,16.0271452 L42.5098994,15.4186502 L42.5098994,12.0438931 Z M7.21364659,11.7122013 L20.5533213,19.181168 L15.1659861,25.0270877 L2.93293423,16.857555 C2.93293423,16.857555 7.21364659,11.7122013 7.21364659,11.7122013 L7.21364659,11.7122013 Z M40.1479236,11.0665238 L40.1479236,35.8525153 L23.6164534,44.1147092 L23.6164534,19.6049308 C23.6164534,19.6049308 40.1479236,11.0665238 40.1479236,11.0665238 L40.1479236,11.0665238 Z M28.9300138,3.28416158 L38.6535401,9.20385618 L28.9300138,14.2199563 C28.9300138,14.2199563 28.9300138,3.28416158 28.9300138,3.28416158 L28.9300138,3.28416158 Z M26.5680379,2.97076598 L26.5680379,15.4375366 L22.4537616,17.5398249 L9.48296122,10.2921829 L26.5680379,2.97076598 Z M27.6935472,0.00147549716 C27.5542602,0.00796768466 27.4167439,0.0392482244 27.2880805,0.0935465199 L6.62285753,8.94593928 C6.45110966,9.01971413 6.29942855,9.13362251 6.18020838,9.27763104 L0.275858949,16.3594272 C-0.143182244,16.8587354 -0.0776701705,17.6035664 0.422228267,18.0220174 C0.452328409,18.047396 0.483608949,18.0710039 0.515479687,18.0928413 L5.90340511,21.6889229 L5.90340511,34.8196673 C5.90045412,35.1979847 6.07869418,35.5544648 6.38323679,35.7787404 L21.7343092,46.9913384 C22.0955109,47.2533867 22.5741622,47.2887987 22.9701857,47.0834094 L41.8642219,37.641408 C42.2596551,37.4401502 42.5093092,37.0340934 42.5098994,36.5902638 L42.5098994,17.7794457 L50.6280848,18.8677724 C51.2767134,18.9385962 51.8598298,18.4705685 51.9306537,17.8225302 C51.9713774,17.4471637 51.8303199,17.074158 51.5505656,16.8203725 L42.1038426,8.55817862 C42.0524953,8.51037251 41.9970166,8.467288 41.9379967,8.42951527 L28.3581111,0.167321378 C28.1580337,0.0475110085 27.9266757,-0.00973828125 27.6935472,0.00147549716 L27.6935472,0.00147549716 Z" id="Fill-1"></path>
                    <path d="M31.3393826,21.5923664 L31.3393826,26.4473423 L34.2030275,25.0155198 L34.3027711,20.0950319 L31.3393826,21.5923664 Z M30.1589849,29.5370333 C29.9435623,29.5370333 29.7281397,29.4780134 29.5380957,29.361154 C29.1904685,29.1457315 28.9785871,28.7662336 28.9785871,28.3566356 L28.9785871,20.8664218 C28.9785871,20.4208217 29.2294217,20.0135844 29.6266255,19.8123266 L34.9903528,17.1027237 C35.3609977,16.9162208 35.801286,16.9362876 36.1512739,17.1570219 C36.5018521,17.3777563 36.7113727,17.7661072 36.7031099,18.1798366 L36.5484778,25.7762862 C36.5396248,26.2148039 36.2882001,26.6120077 35.896308,26.8079538 L30.6872129,29.4125013 C30.5201866,29.4963096 30.3395857,29.5370333 30.1589849,29.5370333 L30.1589849,29.5370333 Z" id="Fill-4"></path>
                    <path d="M31.3393826,35.011954 L31.3393826,39.8669299 L34.2030275,38.4351075 L34.3027711,33.5146195 L31.3393826,35.011954 Z M30.1589849,42.9572112 C29.9435623,42.9572112 29.7281397,42.8976011 29.5380957,42.7807417 C29.1904685,42.5659093 28.9785871,42.1858212 28.9785871,41.7768134 L28.9785871,34.2860094 C28.9785871,33.8404093 29.2294217,33.4331721 29.6266255,33.2319143 L34.9903528,30.5223113 C35.3609977,30.3358085 35.801286,30.3558752 36.1512739,30.5766096 C36.5018521,30.797344 36.7113727,31.1856948 36.7031099,31.5994242 L36.5484778,39.196464 C36.5396248,39.6343915 36.2882001,40.0321856 35.896308,40.2281316 L30.6872129,42.8326792 C30.5201866,42.9158972 30.3395857,42.9572112 30.1589849,42.9572112 L30.1589849,42.9572112 Z" id="Fill-6"></path>
                </g>
                <text id="CONTRATOS-DE-MI-CIUD" font-family=".SFNSDisplay-Regular, .SF NS Display" font-size="24" font-weight="normal" letter-spacing="-0.1714286">
                    <tspan x="61" y="23" fill="#FFFFFF">CONTRATOS DE</tspan>
                    <tspan x="235.755357" y="23" fill="#B8B8B8"></tspan>
                    <tspan x="61" y="51" letter-spacing="6.63" fill="#D6E300">MI CIUDAD</tspan>
                </text>
            </g>
        </g>
    </g>
</svg>