<?xml version="1.0" encoding="utf-8"?>
<!-- Generator: Adobe Illustrator 16.0.0, SVG Export Plug-In . SVG Version: 6.00 Build 0)  -->
<!DOCTYPE svg PUBLIC "-//W3C//DTD SVG 1.1//EN" "http://www.w3.org/Graphics/SVG/1.1/DTD/svg11.dtd">
<svg version="1.1" id="Layer_1" xmlns="http://www.w3.org/2000/svg" xmlns:xlink="http://www.w3.org/1999/xlink" x="0px" y="0px"
	 width="24px" height="24px" viewBox="0 0 24 24" enable-background="new 0 0 24 24" xml:space="preserve">
<g>
	<path fill="#FF5E33" d="M21.82,8.5c0,0.275-0.223,0.5-0.5,0.5h-3c-0.274,0-0.5-0.225-0.5-0.5S18.046,8,18.32,8h3
		C21.598,8,21.82,8.225,21.82,8.5z"/>
	<path fill="#FF5E33" d="M22.82,11.5c0,0.275-0.223,0.5-0.5,0.5h-4c-0.274,0-0.5-0.225-0.5-0.5s0.226-0.5,0.5-0.5h4
		C22.598,11,22.82,11.225,22.82,11.5z"/>
	<path fill="#FF5E33" d="M22.82,14.5c0,0.274-0.223,0.5-0.5,0.5h-4c-0.274,0-0.5-0.226-0.5-0.5c0-0.275,0.226-0.5,0.5-0.5h4
		C22.598,14,22.82,14.225,22.82,14.5z"/>
	<path fill="#FF5E33" d="M21.27,6.209c0.441,0.578,0.662,1.323,0.604,1.998c0.449,0.26,0.796,0.674,0.997,1.2
		c0.238,0.618,0.249,1.351,0.053,1.948c0.494,0.492,0.748,1.213,0.678,1.969c-0.037,0.389-0.16,0.735-0.349,1.017
		c0.423,0.421,0.423,1.121,0.423,1.415c0,2.248-1.841,2.248-2.628,2.248h-4.77c0.805,3.487-0.166,5.297-1.396,5.83
		c-0.926,0.396-1.974,0.062-2.497-0.793c-0.048-0.078-0.073-0.168-0.073-0.261V20.4c0-0.176-0.074-0.39-0.146-0.596
		c-0.488-1.396-1.456-2.647-2.958-3.834c-0.113-0.09-0.218-0.193-0.312-0.305c-0.336-0.404-0.924-0.665-1.5-0.665
		c-0.272,0-0.5-0.227-0.5-0.5c0-0.274,0.228-0.5,0.5-0.5c0.875,0,1.748,0.391,2.271,1.024c0.049,0.057,0.1,0.107,0.162,0.156
		c1.654,1.308,2.729,2.709,3.282,4.288c0.093,0.261,0.202,0.579,0.202,0.927v2.227c0.279,0.355,0.742,0.479,1.175,0.29
		c0.876-0.379,1.575-1.989,0.666-5.278c-0.041-0.152-0.013-0.312,0.084-0.437c0.093-0.124,0.239-0.197,0.396-0.197h5.411
		c1.263,0,1.628-0.28,1.628-1.248c0-0.752-0.132-0.752-0.359-0.752c-0.235,0-0.44-0.167-0.488-0.399
		c-0.048-0.235,0.077-0.47,0.298-0.562c0.256-0.108,0.44-0.417,0.479-0.813c0.041-0.404-0.084-0.991-0.563-1.311
		c-0.22-0.146-0.286-0.436-0.157-0.664c0.188-0.324,0.266-0.939,0.057-1.49c-0.104-0.276-0.326-0.636-0.779-0.787
		c-0.253-0.084-0.395-0.35-0.322-0.606c0.112-0.396,0.042-1.029-0.359-1.558C20.2,6.438,19.654,6,18.652,6h-8.188
		C10.163,6,9.93,6.086,9.744,6.266C9.255,6.739,8.609,7,7.926,7H7.321c-0.274,0-0.5-0.225-0.5-0.5S7.047,6,7.321,6h0.604
		c0.422,0,0.821-0.161,1.125-0.454C9.421,5.188,9.909,5,10.467,5h8.188C19.758,5,20.689,5.43,21.27,6.209z"/>
	<path fill="#FF5E33" d="M7.32,5.5v10c0,0.275-0.225,0.5-0.5,0.5h-6c-0.274,0-0.5-0.225-0.5-0.5v-10c0-0.275,0.226-0.5,0.5-0.5h6
		C7.098,5,7.32,5.225,7.32,5.5z M1.32,15h5V6h-5V15z"/>
</g>
</svg>
