<?xml version="1.0" encoding="utf-8"?>
<!-- Generator: Adobe Illustrator 16.0.0, SVG Export Plug-In . SVG Version: 6.00 Build 0)  -->
<!DOCTYPE svg PUBLIC "-//W3C//DTD SVG 1.1//EN" "http://www.w3.org/Graphics/SVG/1.1/DTD/svg11.dtd">
<svg version="1.1" id="Layer_1" xmlns="http://www.w3.org/2000/svg" xmlns:xlink="http://www.w3.org/1999/xlink" x="0px" y="0px"
	 width="24px" height="24px" viewBox="0 0 24 24" enable-background="new 0 0 24 24" xml:space="preserve">
<g>
	<path fill="#FF5E33" d="M2.676,5.5h3c0.274,0,0.5,0.225,0.5,0.5s-0.226,0.5-0.5,0.5h-3c-0.277,0-0.5-0.225-0.5-0.5
		S2.398,5.5,2.676,5.5z"/>
	<path fill="#FF5E33" d="M1.676,8.5h4c0.274,0,0.5,0.225,0.5,0.5s-0.226,0.5-0.5,0.5h-4c-0.277,0-0.5-0.225-0.5-0.5
		S1.398,8.5,1.676,8.5z"/>
	<path fill="#FF5E33" d="M1.676,11.5h4c0.274,0,0.5,0.225,0.5,0.5s-0.226,0.5-0.5,0.5h-4c-0.277,0-0.5-0.225-0.5-0.5
		S1.398,11.5,1.676,11.5z"/>
	<path fill="#FF5E33" d="M5.342,2.5h8.188c0.557,0,1.045,0.188,1.415,0.546C15.249,3.339,15.648,3.5,16.07,3.5h0.605
		c0.274,0,0.5,0.225,0.5,0.5s-0.226,0.5-0.5,0.5h-0.604c-0.684,0-1.33-0.261-1.819-0.734C14.066,3.587,13.833,3.5,13.531,3.5H5.344
		c-1.002,0-1.548,0.439-1.826,0.811C3.116,4.84,3.046,5.473,3.158,5.869C3.23,6.125,3.089,6.391,2.836,6.475
		C2.383,6.626,2.161,6.986,2.057,7.262c-0.209,0.551-0.131,1.166,0.056,1.49C2.242,8.98,2.176,9.27,1.956,9.416
		c-0.479,0.32-0.604,0.906-0.563,1.311c0.039,0.396,0.223,0.705,0.479,0.813c0.221,0.092,0.346,0.326,0.298,0.562
		c-0.048,0.232-0.253,0.399-0.489,0.399c-0.227,0-0.359,0-0.359,0.752c0,0.968,0.365,1.248,1.628,1.248h5.411
		c0.156,0,0.303,0.073,0.396,0.197c0.096,0.124,0.125,0.284,0.084,0.437c-0.91,3.289-0.21,4.899,0.666,5.278
		c0.432,0.188,0.895,0.065,1.174-0.29v-2.227c0-0.347,0.11-0.666,0.203-0.926c0.553-1.58,1.627-2.981,3.282-4.289
		c0.063-0.048,0.113-0.099,0.162-0.156c0.524-0.633,1.396-1.024,2.271-1.024c0.273,0,0.5,0.226,0.5,0.5s-0.227,0.5-0.5,0.5
		c-0.576,0-1.164,0.261-1.5,0.665c-0.094,0.111-0.199,0.215-0.312,0.305c-1.502,1.186-2.47,2.438-2.958,3.834
		c-0.072,0.206-0.146,0.42-0.146,0.596v2.379c0,0.093-0.025,0.183-0.073,0.261c-0.523,0.856-1.571,1.19-2.497,0.793
		c-1.229-0.533-2.2-2.343-1.395-5.83h-4.77c-0.787,0-2.628,0-2.628-2.248c0-0.294,0-0.994,0.423-1.415
		c-0.188-0.281-0.311-0.628-0.348-1.017c-0.071-0.755,0.183-1.476,0.677-1.968c-0.196-0.597-0.185-1.33,0.053-1.948
		c0.201-0.526,0.548-0.94,0.997-1.2c-0.057-0.675,0.163-1.42,0.604-1.998C3.307,2.93,4.239,2.5,5.342,2.5z"/>
	<path fill="#FF5E33" d="M17.176,2.5h6c0.274,0,0.5,0.225,0.5,0.5v10c0,0.275-0.226,0.5-0.5,0.5h-6c-0.275,0-0.5-0.225-0.5-0.5V3
		C16.676,2.725,16.898,2.5,17.176,2.5z M22.676,3.5h-5v9h5V3.5z"/>
</g>
</svg>
