<?xml version="1.0" encoding="utf-8"?>
<!-- Generator: Adobe Illustrator 16.0.0, SVG Export Plug-In . SVG Version: 6.00 Build 0)  -->
<!DOCTYPE svg PUBLIC "-//W3C//DTD SVG 1.1//EN" "http://www.w3.org/Graphics/SVG/1.1/DTD/svg11.dtd">
<svg version="1.1" id="Layer_1" xmlns="http://www.w3.org/2000/svg" xmlns:xlink="http://www.w3.org/1999/xlink" x="0px" y="0px"
	 width="24px" height="24px" viewBox="0 0 24 24" enable-background="new 0 0 24 24" xml:space="preserve">
<g>
	<path fill="#D6E500" d="M21.32,15.999h-3c-0.274,0-0.5-0.225-0.5-0.5s0.226-0.5,0.5-0.5h3c0.277,0,0.5,0.225,0.5,0.5
		S21.598,15.999,21.32,15.999z"/>
	<path fill="#D6E500" d="M22.32,12.999h-4c-0.274,0-0.5-0.225-0.5-0.5s0.226-0.5,0.5-0.5h4c0.277,0,0.5,0.225,0.5,0.5
		S22.598,12.999,22.32,12.999z"/>
	<path fill="#D6E500" d="M22.32,10h-4c-0.274,0-0.5-0.225-0.5-0.5S18.046,9,18.32,9h4c0.277,0,0.5,0.225,0.5,0.5S22.598,10,22.32,10
		z"/>
	<path fill="#D6E500" d="M18.654,18.999h-8.188c-0.557,0-1.045-0.188-1.415-0.546c-0.304-0.293-0.703-0.454-1.125-0.454H7.32
		c-0.274,0-0.5-0.225-0.5-0.5s0.226-0.5,0.5-0.5h0.604c0.683,0,1.33,0.261,1.819,0.734c0.186,0.179,0.42,0.266,0.722,0.266h8.188
		c1.002,0,1.549-0.439,1.826-0.811c0.401-0.529,0.473-1.162,0.359-1.56c-0.072-0.256,0.069-0.521,0.322-0.604
		c0.453-0.151,0.675-0.512,0.779-0.787c0.209-0.551,0.131-1.166-0.057-1.49c-0.13-0.229-0.062-0.518,0.156-0.664
		c0.479-0.32,0.604-0.906,0.562-1.31c-0.039-0.396-0.223-0.705-0.479-0.813c-0.221-0.092-0.346-0.326-0.298-0.562
		c0.048-0.232,0.253-0.399,0.489-0.399c0.227,0,0.358,0,0.358-0.752c0-0.968-0.364-1.248-1.628-1.248h-5.411
		c-0.155,0-0.303-0.073-0.396-0.197c-0.096-0.124-0.125-0.284-0.084-0.437c0.91-3.289,0.209-4.899-0.666-5.278
		c-0.432-0.188-0.896-0.065-1.174,0.29v2.227c0,0.346-0.11,0.666-0.203,0.925c-0.553,1.581-1.626,2.982-3.282,4.289
		C9.766,8.866,9.716,8.917,9.667,8.975c-0.525,0.633-1.396,1.024-2.27,1.024c-0.274,0-0.5-0.226-0.5-0.5s0.226-0.5,0.5-0.5
		c0.575,0,1.164-0.261,1.499-0.665C8.99,8.222,9.095,8.119,9.209,8.028c1.502-1.185,2.47-2.438,2.958-3.833
		c0.072-0.207,0.146-0.42,0.146-0.597V1.221c0-0.093,0.025-0.183,0.073-0.261c0.523-0.857,1.571-1.191,2.497-0.793
		c1.229,0.533,2.2,2.343,1.395,5.83h4.771c0.787,0,2.628,0,2.628,2.248c0,0.294,0,0.994-0.423,1.415
		c0.188,0.281,0.312,0.628,0.349,1.017c0.07,0.754-0.184,1.475-0.678,1.967c0.196,0.598,0.186,1.33-0.053,1.948
		c-0.201,0.526-0.548,0.94-0.997,1.2c0.058,0.675-0.163,1.42-0.604,1.998C20.689,18.569,19.757,18.999,18.654,18.999z"/>
	<path fill="#D6E500" d="M6.82,18.999h-6c-0.274,0-0.5-0.225-0.5-0.5v-10c0-0.275,0.226-0.5,0.5-0.5h6c0.276,0,0.5,0.225,0.5,0.5v10
		C7.32,18.774,7.098,18.999,6.82,18.999z M1.32,17.999h5V9h-5V17.999z"/>
</g>
</svg>
