<?xml version="1.0" encoding="UTF-8" standalone="no"?>
<svg width="12px" height="12px" viewBox="0 0 12 12" version="1.1" xmlns="http://www.w3.org/2000/svg" xmlns:xlink="http://www.w3.org/1999/xlink">
    <!-- Generator: Sketch 45.2 (43514) - http://www.bohemiancoding.com/sketch -->
    <title>Group 5</title>
    <desc>Created with Sketch.</desc>
    <defs></defs>
    <g id="Page-1" stroke="none" stroke-width="1" fill="none" fill-rule="evenodd" stroke-linecap="round" stroke-linejoin="round">
        <g id="Tarjeta-TM" transform="translate(-502.000000, -376.000000)" stroke="#B1B1B1" stroke-width="1.5">
            <g id="Group-12" transform="translate(467.000000, 136.000000)">
                <g id="Group-5" transform="translate(36.000000, 241.000000)">
                    <path d="M10,1.42764016 C10,2.21569752 7.76142857,2.85528031 5,2.85528031 C2.23857143,2.85528031 0,2.21569752 0,1.42764016 C0,0.63958279 2.23857143,0 5,0 C7.76142857,0 10,0.63958279 10,1.42764016 Z" id="Stroke-455"></path>
                    <polygon id="Stroke-456" points="0 5.35365059 0 1.42764016 0 5.35365059 0 8.56584094"></polygon>
                    <path d="M10,8.56584094 C10,9.35389831 7.76142857,9.9934811 5,9.9934811 C2.23857143,9.9934811 0,9.35389831 0,8.56584094" id="Stroke-457"></path>
                    <path d="M10,1.42764016 L10,8.56584094" id="Stroke-458"></path>
                    <path d="M10,4.99674055 C10,5.78479791 7.76142857,6.4243807 5,6.4243807 C2.23857143,6.4243807 0,5.78479791 0,4.99674055" id="Stroke-459"></path>
                </g>
            </g>
        </g>
    </g>
</svg>